<svg width="134" height="37" viewBox="0 0 134 37" fill="none"
    xmlns="http://www.w3.org/2000/svg">
    <path d="M23.678 20.62C23.666 21.604 23.408 22.576 22.904 23.536C22.4 24.496 21.68 25.366 20.744 26.146C19.808 26.926 18.686 27.544 17.378 28C16.082 28.468 14.618 28.702 12.986 28.702C10.322 28.702 8.018 28.144 6.074 27.028C4.142 25.912 2.648 24.37 1.592 22.402C0.548001 20.422 0.026001 18.142 0.026001 15.562C0.026001 13.63 0.338001 11.848 0.962001 10.216C1.598 8.57199 2.486 7.14999 3.626 5.94999C4.766 4.73799 6.104 3.79599 7.64 3.12399C9.176 2.45199 10.838 2.11599 12.626 2.11599C13.73 2.11599 14.63 2.21799 15.326 2.42199C16.034 2.61399 16.598 2.81199 17.018 3.01599C17.45 3.20799 17.798 3.30399 18.062 3.30399C18.386 3.30399 18.668 3.20799 18.908 3.01599C19.16 2.82399 19.412 2.63799 19.664 2.45799C19.916 2.27799 20.204 2.18799 20.528 2.18799C20.792 2.18799 21.014 2.27199 21.194 2.43999C21.374 2.60799 21.518 2.89599 21.626 3.30399L23.444 9.90999C23.54 10.246 23.498 10.546 23.318 10.81C23.15 11.062 22.904 11.23 22.58 11.314C22.22 11.398 21.89 11.374 21.59 11.242C21.29 11.11 21.062 10.852 20.906 10.468C20.27 8.95599 19.58 7.77999 18.836 6.93999C18.092 6.09999 17.312 5.51199 16.496 5.17599C15.692 4.82799 14.876 4.65399 14.048 4.65399C13.172 4.65399 12.386 4.86999 11.69 5.30199C10.994 5.72199 10.4 6.33399 9.908 7.13799C9.416 7.94199 9.038 8.91999 8.774 10.072C8.51 11.212 8.378 12.502 8.378 13.942C8.378 16.306 8.684 18.274 9.296 19.846C9.92 21.406 10.778 22.576 11.87 23.356C12.962 24.124 14.222 24.508 15.65 24.508C16.934 24.508 18.104 24.166 19.16 23.482C20.228 22.786 21.08 21.76 21.716 20.404C21.896 20.068 22.088 19.846 22.292 19.738C22.508 19.618 22.742 19.588 22.994 19.648C23.234 19.684 23.408 19.786 23.516 19.954C23.624 20.122 23.678 20.344 23.678 20.62ZM11.78 27.766H13.4L11.942 30.448L10.844 30.178C11.108 30.118 11.396 30.07 11.708 30.034C12.032 30.01 12.44 29.998 12.932 29.998C14.216 29.998 15.188 30.25 15.848 30.754C16.52 31.27 16.856 31.984 16.856 32.896C16.856 33.868 16.46 34.642 15.668 35.218C14.876 35.806 13.736 36.1 12.248 36.1C11.024 36.1 10.046 35.908 9.314 35.524C8.594 35.152 8.18 34.714 8.072 34.21C8.06 33.982 8.12 33.79 8.252 33.634C8.396 33.49 8.57 33.418 8.774 33.418C8.954 33.382 9.116 33.4 9.26 33.472C9.404 33.544 9.554 33.628 9.71 33.724C9.986 33.964 10.256 34.138 10.52 34.246C10.796 34.366 11.09 34.426 11.402 34.426C12.242 34.426 12.662 33.886 12.662 32.806C12.662 32.338 12.536 31.978 12.284 31.726C12.032 31.486 11.654 31.366 11.15 31.366H10.736C10.46 31.366 10.28 31.282 10.196 31.114C10.124 30.946 10.148 30.748 10.268 30.52L11.78 27.766Z" fill="#df344e"/>
    <path d="M33.8261 25.642V25.264L33.2861 25.282V13.438C33.2861 12.982 33.1601 12.622 32.9081 12.358C32.6681 12.082 32.3441 11.944 31.9361 11.944C31.6121 11.944 31.3301 12.028 31.0901 12.196C30.8621 12.352 30.7481 12.574 30.7481 12.862V14.806C30.7481 15.79 30.4061 16.564 29.7221 17.128C29.0501 17.68 28.0901 17.956 26.8421 17.956C25.8221 17.956 25.0481 17.734 24.5201 17.29C24.0041 16.834 23.7461 16.198 23.7461 15.382C23.7461 14.602 24.0941 13.828 24.7901 13.06C25.4981 12.28 26.5541 11.632 27.9581 11.116C29.3621 10.6 31.1261 10.342 33.2501 10.342C35.7581 10.342 37.6241 10.804 38.8481 11.728C40.0721 12.652 40.6841 13.924 40.6841 15.544V24.184C40.6841 24.424 40.7381 24.616 40.8461 24.76C40.9661 24.904 41.1401 24.976 41.3681 24.976C41.5721 24.976 41.7401 24.922 41.8721 24.814C42.0041 24.706 42.1241 24.58 42.2321 24.436C42.3041 24.352 42.3761 24.286 42.4481 24.238C42.5321 24.178 42.6281 24.148 42.7361 24.148C42.9161 24.148 43.0421 24.214 43.1141 24.346C43.1981 24.478 43.2401 24.646 43.2401 24.85C43.2401 25.342 43.0541 25.87 42.6821 26.434C42.3221 26.998 41.7641 27.484 41.0081 27.892C40.2641 28.288 39.3281 28.486 38.2001 28.486C36.8801 28.486 35.8181 28.216 35.0141 27.676C34.2221 27.136 33.8261 26.458 33.8261 25.642ZM23.0441 24.202C23.0441 22.582 23.7701 21.304 25.2221 20.368C26.6741 19.432 28.7501 18.964 31.4501 18.964C32.1341 18.964 32.7221 19.018 33.2141 19.126C33.7181 19.222 34.1321 19.36 34.4561 19.54L33.9161 20.908C33.6521 20.752 33.4061 20.644 33.1781 20.584C32.9621 20.524 32.7161 20.494 32.4401 20.494C31.8641 20.494 31.4021 20.704 31.0541 21.124C30.7181 21.532 30.5501 22.132 30.5501 22.924C30.5501 23.74 30.7181 24.358 31.0541 24.778C31.3901 25.186 31.8281 25.39 32.3681 25.39C32.7161 25.39 33.0401 25.306 33.3401 25.138C33.6401 24.97 33.8681 24.772 34.0241 24.544L34.4381 25.804C33.8741 26.656 33.0521 27.316 31.9721 27.784C30.9041 28.252 29.7581 28.486 28.5341 28.486C26.8901 28.486 25.5641 28.078 24.5561 27.262C23.5481 26.446 23.0441 25.426 23.0441 24.202Z" fill="#df344e"/>
    <path d="M63.4605 3.86199C63.4605 3.53799 63.5685 3.27999 63.7845 3.08799C64.0005 2.89599 64.3365 2.79999 64.7925 2.79999H70.5525C71.0205 2.79999 71.3625 2.89599 71.5785 3.08799C71.8065 3.27999 71.9205 3.53799 71.9205 3.86199C71.9205 4.11399 71.8485 4.31799 71.7045 4.47399C71.5725 4.62999 71.3685 4.77999 71.0925 4.92399L70.5885 5.15799C70.1325 5.37399 69.7365 5.69799 69.4005 6.12999C69.0765 6.54999 68.7765 7.20999 68.5005 8.10999L63.6225 23.59C63.4425 24.154 63.3165 24.598 63.2445 24.922C63.1725 25.246 63.1365 25.582 63.1365 25.93V26.992C63.1365 27.316 63.0345 27.568 62.8305 27.748C62.6265 27.916 62.3745 28 62.0745 28H55.4325C55.1325 28 54.8805 27.916 54.6765 27.748C54.4845 27.568 54.3885 27.304 54.3885 26.956V25.894C54.3885 25.702 54.3465 25.462 54.2625 25.174C54.1905 24.886 54.1005 24.574 53.9925 24.238L48.1605 6.66999C48.0045 6.24999 47.8485 5.94399 47.6925 5.75199C47.5365 5.54799 47.3145 5.37399 47.0265 5.22999L46.5225 4.97799C46.0425 4.73799 45.8025 4.36599 45.8025 3.86199C45.8025 3.53799 45.9105 3.27999 46.1265 3.08799C46.3545 2.89599 46.7025 2.79999 47.1705 2.79999H57.5565C58.0245 2.79999 58.3665 2.89599 58.5825 3.08799C58.7985 3.27999 58.9065 3.53799 58.9065 3.86199C58.9065 4.12599 58.8405 4.34199 58.7085 4.50999C58.5765 4.66599 58.3605 4.80399 58.0605 4.92399L57.4665 5.19399C57.1545 5.32599 56.9565 5.53599 56.8725 5.82399C56.7885 6.09999 56.8365 6.50799 57.0165 7.04799L62.3265 23.464L60.2745 25.444L65.9265 7.87599C66.1305 7.22799 66.1545 6.68799 65.9985 6.25599C65.8425 5.82399 65.4285 5.45199 64.7565 5.13999L64.2885 4.92399C64.0125 4.79199 63.8025 4.65399 63.6585 4.50999C63.5265 4.35399 63.4605 4.13799 63.4605 3.86199Z" fill="#df344e"/>
    <path d="M77.7492 11.728V24.598C77.7492 25.03 77.7852 25.342 77.8572 25.534C77.9292 25.714 78.0552 25.846 78.2352 25.93L78.6672 26.11C78.9192 26.206 79.0992 26.338 79.2072 26.506C79.3152 26.662 79.3692 26.842 79.3692 27.046C79.3692 27.346 79.2732 27.58 79.0812 27.748C78.8892 27.916 78.5832 28 78.1632 28H69.8652C69.4452 28 69.1392 27.916 68.9472 27.748C68.7552 27.58 68.6592 27.346 68.6592 27.046C68.6592 26.842 68.7132 26.662 68.8212 26.506C68.9292 26.338 69.1092 26.206 69.3612 26.11L69.7932 25.93C69.9732 25.846 70.0992 25.714 70.1712 25.534C70.2432 25.342 70.2792 25.03 70.2792 24.598V15.508C70.2792 15.172 70.2312 14.932 70.1352 14.788C70.0392 14.632 69.8952 14.53 69.7032 14.482L69.2712 14.374C69.0432 14.302 68.8752 14.2 68.7672 14.068C68.6712 13.924 68.6232 13.744 68.6232 13.528C68.6232 13.276 68.6892 13.078 68.8212 12.934C68.9652 12.79 69.2232 12.646 69.5952 12.502L74.0052 10.9C74.5812 10.672 75.0312 10.516 75.3552 10.432C75.6792 10.348 75.9732 10.306 76.2372 10.306C76.7412 10.306 77.1192 10.438 77.3712 10.702C77.6232 10.966 77.7492 11.308 77.7492 11.728ZM73.6632 8.79399C72.3552 8.79399 71.3172 8.47599 70.5492 7.83999C69.7812 7.20399 69.3972 6.35199 69.3972 5.28399C69.3972 4.22799 69.7812 3.38799 70.5492 2.76399C71.3172 2.13999 72.3552 1.82799 73.6632 1.82799C74.9712 1.82799 76.0092 2.13999 76.7772 2.76399C77.5452 3.38799 77.9292 4.22799 77.9292 5.28399C77.9292 6.35199 77.5452 7.20399 76.7772 7.83999C76.0092 8.47599 74.9712 8.79399 73.6632 8.79399Z" fill="#df344e"/>
    <path d="M86.9947 2.24199V26.74L83.5927 27.766C82.7047 28.054 82.0807 28.24 81.7207 28.324C81.3607 28.408 81.0307 28.45 80.7307 28.45C80.3587 28.45 80.0587 28.348 79.8307 28.144C79.6147 27.94 79.5067 27.652 79.5067 27.28V6.03999C79.5067 5.69199 79.4587 5.44599 79.3627 5.30199C79.2787 5.15799 79.1407 5.06199 78.9487 5.01399L78.4987 4.90599C78.2707 4.83399 78.1027 4.73199 77.9947 4.59999C77.8987 4.45599 77.8507 4.27599 77.8507 4.05999C77.8507 3.80799 77.9167 3.60999 78.0487 3.46599C78.1927 3.30999 78.4567 3.15999 78.8407 3.01599L83.2327 1.41399C83.8087 1.19799 84.2587 1.04799 84.5827 0.963992C84.9187 0.867992 85.2127 0.819992 85.4647 0.819992C85.9687 0.819992 86.3467 0.957992 86.5987 1.23399C86.8627 1.49799 86.9947 1.83399 86.9947 2.24199ZM85.7707 16.426L84.6367 15.328C85.6207 13.756 86.7187 12.526 87.9307 11.638C89.1427 10.75 90.5347 10.306 92.1067 10.306C93.5227 10.306 94.7887 10.666 95.9047 11.386C97.0207 12.094 97.8967 13.09 98.5327 14.374C99.1807 15.646 99.5047 17.122 99.5047 18.802C99.5047 20.734 99.1087 22.432 98.3167 23.896C97.5367 25.348 96.4627 26.476 95.0947 27.28C93.7387 28.084 92.2027 28.486 90.4867 28.486C89.0827 28.486 87.8707 28.198 86.8507 27.622C85.8307 27.046 84.9547 26.164 84.2227 24.976L85.9687 23.806C86.4727 24.55 86.9587 25.084 87.4267 25.408C87.8947 25.72 88.4047 25.876 88.9567 25.876C89.5207 25.876 90.0187 25.672 90.4507 25.264C90.8827 24.856 91.2127 24.19 91.4407 23.266C91.6807 22.33 91.8007 21.088 91.8007 19.54C91.8007 18.136 91.6807 17.008 91.4407 16.156C91.2007 15.304 90.8767 14.686 90.4687 14.302C90.0607 13.906 89.5867 13.708 89.0467 13.708C88.4107 13.708 87.8227 13.924 87.2827 14.356C86.7427 14.788 86.2387 15.478 85.7707 16.426Z" fill="#df344e"/>
    <path d="M107.235 18.19C107.235 16.402 107.469 14.926 107.937 13.762C108.417 12.598 109.053 11.734 109.845 11.17C110.637 10.594 111.501 10.306 112.437 10.306C113.661 10.306 114.597 10.678 115.245 11.422C115.905 12.166 116.235 13.294 116.235 14.806C116.235 16.342 115.923 17.476 115.299 18.208C114.675 18.928 113.865 19.288 112.869 19.288C111.873 19.288 111.129 19.03 110.637 18.514C110.145 17.998 109.893 17.284 109.881 16.372V15.616C109.869 15.316 109.803 15.088 109.683 14.932C109.563 14.764 109.371 14.68 109.107 14.68C108.867 14.68 108.651 14.788 108.459 15.004C108.279 15.208 108.135 15.55 108.027 16.03C107.919 16.51 107.865 17.158 107.865 17.974L107.235 18.19ZM107.433 11.746L107.865 15.76V24.562C107.865 24.946 107.925 25.222 108.045 25.39C108.165 25.558 108.417 25.684 108.801 25.768L110.223 26.038C110.547 26.11 110.781 26.224 110.925 26.38C111.069 26.536 111.141 26.758 111.141 27.046C111.141 27.346 111.039 27.58 110.835 27.748C110.631 27.916 110.331 28 109.935 28H99.9994C99.5674 28 99.2554 27.916 99.0634 27.748C98.8834 27.58 98.7934 27.346 98.7934 27.046C98.7934 26.842 98.8474 26.662 98.9554 26.506C99.0634 26.338 99.2434 26.2 99.4954 26.092L99.9274 25.93C100.095 25.846 100.215 25.714 100.287 25.534C100.359 25.354 100.395 25.048 100.395 24.616V15.562C100.395 15.214 100.347 14.968 100.251 14.824C100.167 14.668 100.029 14.566 99.8374 14.518L99.3874 14.41C99.1594 14.338 98.9914 14.236 98.8834 14.104C98.7874 13.96 98.7394 13.786 98.7394 13.582C98.7394 13.33 98.8114 13.126 98.9554 12.97C99.0994 12.814 99.3574 12.67 99.7294 12.538L104.013 11.008C104.757 10.72 105.291 10.534 105.615 10.45C105.951 10.366 106.215 10.324 106.407 10.324C106.707 10.324 106.935 10.438 107.091 10.666C107.247 10.882 107.361 11.242 107.433 11.746Z" fill="#df344e"/>
    <path d="M133.028 17.344C133.028 18.076 132.824 18.646 132.416 19.054C132.02 19.462 131.444 19.666 130.688 19.666H119.924V18.01H124.748C125.348 18.01 125.648 17.722 125.648 17.146C125.648 15.502 125.468 14.332 125.108 13.636C124.748 12.928 124.286 12.574 123.722 12.574C123.314 12.574 122.948 12.736 122.624 13.06C122.3 13.372 122.036 13.864 121.832 14.536C121.64 15.196 121.544 16.054 121.544 17.11C121.544 19.342 122.036 20.974 123.02 22.006C124.016 23.038 125.36 23.554 127.052 23.554C127.928 23.554 128.702 23.428 129.374 23.176C130.046 22.924 130.652 22.48 131.192 21.844C131.48 21.568 131.702 21.382 131.858 21.286C132.026 21.19 132.182 21.142 132.326 21.142C132.542 21.142 132.698 21.25 132.794 21.466C132.902 21.67 132.956 21.928 132.956 22.24C132.956 23.356 132.596 24.388 131.876 25.336C131.156 26.284 130.154 27.046 128.87 27.622C127.598 28.198 126.122 28.486 124.442 28.486C122.63 28.486 121.004 28.126 119.564 27.406C118.136 26.686 117.002 25.678 116.162 24.382C115.334 23.086 114.92 21.58 114.92 19.864C114.92 17.932 115.304 16.252 116.072 14.824C116.84 13.384 117.956 12.274 119.42 11.494C120.896 10.702 122.666 10.306 124.73 10.306C126.542 10.306 128.066 10.612 129.302 11.224C130.538 11.836 131.468 12.67 132.092 13.726C132.716 14.782 133.028 15.988 133.028 17.344Z" fill="#df344e"/>
</svg>
