<svg width="15" height="19" viewBox="0 0 15 19" fill="none"
    xmlns="http://www.w3.org/2000/svg">
    <path d="M12.1429 12.8502C12.1429 16.2466 9.53119 19 6.30952 19C3.08786 19 0.47619 16.2466 0.47619 12.8502C0.47619 9.45369 3.08786 6.70032 6.30952 6.70032C9.53119 6.70032 12.1429 9.45369 12.1429 12.8502Z" fill="#df344e"/>
    <path d="M4.52381 16.7089C4.52381 17.9742 3.51112 19 2.2619 19C1.01269 19 0 17.9742 0 16.7089C0 15.4435 1.01269 14.4178 2.2619 14.4178C3.51112 14.4178 4.52381 15.4435 4.52381 16.7089Z" fill="#df344e"/>
    <path d="M13.8095 8.38851C13.8095 10.6528 12.3171 12.4884 10.4762 12.4884C8.63524 12.4884 7.14286 10.6528 7.14286 8.38851C7.14286 6.1242 8.63524 4.28861 10.4762 4.28861C12.3171 4.28861 13.8095 6.1242 13.8095 8.38851Z" fill="#df344e"/>
    <path d="M10.4606 2.73439C11.1395 4.40671 11.2223 5.95713 10.6456 6.19734C10.0688 6.43755 9.05097 5.2766 8.37208 3.60428C7.6932 1.93195 7.61039 0.381536 8.18713 0.141323C8.76386 -0.0988904 9.78174 1.06206 10.4606 2.73439Z" fill="#df344e"/>
    <path d="M11.1357 2.8516C10.64 4.58866 10.7105 6.13517 11.2933 6.30582C11.8761 6.47647 12.7505 5.20665 13.2462 3.46959C13.742 1.73253 13.6714 0.186022 13.0886 0.0153712C12.5058 -0.15528 11.6315 1.11454 11.1357 2.8516Z" fill="#df344e"/>
    <path d="M10.7143 16.8295C8.34735 16.8295 6.42857 17.3154 6.42857 17.9147C6.42857 18.5141 8.34735 19 10.7143 19C13.0812 19 15 18.5141 15 17.9147C15 17.3154 13.0812 16.8295 10.7143 16.8295Z" fill="#df344e"/>
</svg>
