<svg width="13" height="19" viewBox="0 0 13 19" fill="none"
    xmlns="http://www.w3.org/2000/svg">
    <path d="M12.1049 9.62667C12.1049 13.4043 9.62058 16.4667 6.55599 16.4667C3.4914 16.4667 1.00707 13.4043 1.00707 9.62667C1.00707 5.84904 3.4914 2.78667 6.55599 2.78667C9.62058 2.78667 12.1049 5.84904 12.1049 9.62667Z" fill="#df344e"/>
    <path d="M7.76228 2.15333C7.76228 3.34259 7.2222 4.30667 6.55599 4.30667C5.88978 4.30667 5.3497 3.34259 5.3497 2.15333C5.3497 0.96408 5.88978 0 6.55599 0C7.2222 0 7.76228 0.96408 7.76228 2.15333Z" fill="#df344e"/>
    <path d="M11.095 2.14676C11.2751 1.94052 11.5803 1.92665 11.7767 2.11577L12.8436 3.14309C13.04 3.33222 13.0532 3.65272 12.8731 3.85896L10.5903 6.47293C10.4102 6.67917 10.105 6.69304 9.90855 6.50392L8.84167 5.4766C8.64527 5.28747 8.63206 4.96697 8.81217 4.76073L11.095 2.14676Z" fill="#df344e"/>
    <path d="M1.90502 2.40009C1.72491 2.19385 1.41968 2.17998 1.22328 2.36911L0.156401 3.39643C-0.0400047 3.58555 -0.0532158 3.90605 0.126893 4.11229L2.40971 6.72626C2.58982 6.9325 2.89505 6.94637 3.09145 6.75725L4.15833 5.72993C4.35473 5.5408 4.36794 5.2203 4.18783 5.01406L1.90502 2.40009Z" fill="#df344e"/>
    <path d="M2.79723 17.4441C2.64886 17.6766 2.34913 17.7387 2.12777 17.5829L0.925355 16.7366C0.703996 16.5808 0.644831 16.266 0.793206 16.0336L2.6738 13.0875C2.82217 12.8551 3.1219 12.793 3.34326 12.9488L4.54568 13.7951C4.76704 13.9509 4.8262 14.2656 4.67782 14.4981L2.79723 17.4441Z" fill="#df344e"/>
    <path d="M10.394 17.4441C10.5424 17.6766 10.8421 17.7387 11.0635 17.5829L12.2659 16.7366C12.4873 16.5808 12.5464 16.266 12.3981 16.0336L10.5175 13.0875C10.3691 12.8551 10.0694 12.793 9.84801 12.9488L8.6456 13.7951C8.42424 13.9509 8.36508 14.2656 8.51345 14.4981L10.394 17.4441Z" fill="#df344e"/>
    <path d="M6.67662 19L7.40789 15.77H5.94535L6.67662 19Z" fill="#df344e"/>
</svg>
